<svg width="50" height="50" viewBox="0 0 50 50" fill="none" xmlns="http://www.w3.org/2000/svg">
<path d="M8.33333 6.25C7.18275 6.25 6.25 7.18275 6.25 8.33333V20.8333C6.25 21.984 7.18275 22.9167 8.33333 22.9167H20.8333C21.984 22.9167 22.9167 21.984 22.9167 20.8333V8.33333C22.9167 7.18275 21.984 6.25 20.8333 6.25H8.33333ZM8.33333 27.0833C7.18275 27.0833 6.25 28.016 6.25 29.1667V41.6667C6.25 42.8173 7.18275 43.75 8.33333 43.75H20.8333C21.984 43.75 22.9167 42.8173 22.9167 41.6667V29.1667C22.9167 28.016 21.984 27.0833 20.8333 27.0833H8.33333ZM29.1667 27.0833C28.016 27.0833 27.0833 28.016 27.0833 29.1667V41.6667C27.0833 42.8173 28.016 43.75 29.1667 43.75H41.6667C42.8173 43.75 43.75 42.8173 43.75 41.6667V29.1667C43.75 28.016 42.8173 27.0833 41.6667 27.0833H29.1667ZM33.3333 22.9167V16.6667H27.0833V12.5H33.3333V6.25H37.5V12.5H43.75V16.6667H37.5V22.9167H33.3333Z" fill="black"/>
</svg>
