<svg width="50" height="51" viewBox="0 0 50 51" fill="none" xmlns="http://www.w3.org/2000/svg">
<path d="M20.8333 17.1667H29.1667V14.0417C29.1667 10.0146 32.4312 6.75 36.4583 6.75C40.4854 6.75 43.75 10.0146 43.75 14.0417C43.75 18.0687 40.4854 21.3333 36.4583 21.3333H33.3333V29.6667H36.4583C40.4854 29.6667 43.75 32.9312 43.75 36.9583C43.75 40.9854 40.4854 44.25 36.4583 44.25C32.4312 44.25 29.1667 40.9854 29.1667 36.9583V33.8333H20.8333V36.9583C20.8333 40.9854 17.5687 44.25 13.5417 44.25C9.51458 44.25 6.25 40.9854 6.25 36.9583C6.25 32.9312 9.51458 29.6667 13.5417 29.6667H16.6667V21.3333H13.5417C9.51458 21.3333 6.25 18.0687 6.25 14.0417C6.25 10.0146 9.51458 6.75 13.5417 6.75C17.5687 6.75 20.8333 10.0146 20.8333 14.0417V17.1667ZM16.6667 17.1667V14.0417C16.6667 12.3158 15.2676 10.9167 13.5417 10.9167C11.8158 10.9167 10.4167 12.3158 10.4167 14.0417C10.4167 15.7676 11.8158 17.1667 13.5417 17.1667H16.6667ZM16.6667 33.8333H13.5417C11.8158 33.8333 10.4167 35.2325 10.4167 36.9583C10.4167 38.6842 11.8158 40.0833 13.5417 40.0833C15.2676 40.0833 16.6667 38.6842 16.6667 36.9583V33.8333ZM33.3333 17.1667H36.4583C38.1842 17.1667 39.5833 15.7676 39.5833 14.0417C39.5833 12.3158 38.1842 10.9167 36.4583 10.9167C34.7325 10.9167 33.3333 12.3158 33.3333 14.0417V17.1667ZM33.3333 33.8333V36.9583C33.3333 38.6842 34.7325 40.0833 36.4583 40.0833C38.1842 40.0833 39.5833 38.6842 39.5833 36.9583C39.5833 35.2325 38.1842 33.8333 36.4583 33.8333H33.3333ZM20.8333 21.3333V29.6667H29.1667V21.3333H20.8333Z" fill="black"/>
</svg>
