<svg width="92" height="35" viewBox="0 0 92 35" fill="none" xmlns="http://www.w3.org/2000/svg">
<path d="M54.7089 9.30218C52.4187 7.06935 49.6998 5.2981 46.7076 4.08971C43.7152 2.88131 40.5082 2.25937 37.2694 2.25937C34.0305 2.25937 30.8235 2.88131 27.8312 4.08971C24.8389 5.2981 22.12 7.06935 19.8298 9.30218L37.2694 26.3049L54.7089 9.30218Z" fill="#FFD200"/>
<path d="M37.2912 26.3294C39.5814 28.5622 42.3002 30.3334 45.2925 31.5418C48.2847 32.7502 51.4919 33.3721 54.7307 33.3721C57.9694 33.3721 61.1769 32.7502 64.1691 31.5418C67.1612 30.3334 69.8804 28.5622 72.1704 26.3294L54.7307 9.32661L37.2912 26.3294Z" fill="#06E07F"/>
<path d="M37.2481 26.3256C34.9579 28.5585 32.239 30.3296 29.2468 31.538C26.2545 32.7464 23.0475 33.3683 19.8086 33.3683C16.5698 33.3683 13.3627 32.7464 10.3704 31.538C7.37817 30.3296 4.65927 28.5585 2.36908 26.3256L19.8086 9.32286L37.2481 26.3256Z" fill="#E3073C"/>
<path d="M54.752 9.30593C57.0419 7.07309 59.761 5.30193 62.7532 4.09354C65.7453 2.88514 68.9529 2.2632 72.1913 2.2632C75.4306 2.2632 78.6373 2.88514 81.6294 4.09354C84.6216 5.30193 87.3407 7.07309 89.6308 9.30593L72.1913 26.3087L54.752 9.30593Z" fill="#1F84EF"/>
</svg>
