<?xml version="1.0" encoding="UTF-8"?>
<svg version="1.1" xmlns="http://www.w3.org/2000/svg" width="100" height="100">
<path d="M0 0 C30.36 0 60.72 0 92 0 C92 2.64 92 5.28 92 8 C61.64 8 31.28 8 0 8 C0 5.36 0 2.72 0 0 Z " fill="#FFFFFF" transform="translate(4,86)"/>
<path d="M0 0 C30.36 0 60.72 0 92 0 C92 2.64 92 5.28 92 8 C61.64 8 31.28 8 0 8 C0 5.36 0 2.72 0 0 Z " fill="#FFFFFF" transform="translate(4,46)"/>
<path d="M0 0 C30.36 0 60.72 0 92 0 C92 2.64 92 5.28 92 8 C61.64 8 31.28 8 0 8 C0 5.36 0 2.72 0 0 Z " fill="#FFFFFF" transform="translate(4,6)"/>
<path d="M0 0 C21.12 0 42.24 0 64 0 C64 2.64 64 5.28 64 8 C42.88 8 21.76 8 0 8 C0 5.36 0 2.72 0 0 Z " fill="#FFFFFF" transform="translate(4,66)"/>
<path d="M0 0 C21.12 0 42.24 0 64 0 C64 2.64 64 5.28 64 8 C42.88 8 21.76 8 0 8 C0 5.36 0 2.72 0 0 Z " fill="#FFFFFF" transform="translate(4,26)"/>
</svg>
