<?xml version="1.0" encoding="UTF-8"?>
<svg version="1.1" xmlns="http://www.w3.org/2000/svg" width="64" height="64">
<path d="M0 0 C24 0 24 0 30 4 C32.69959367 8.76928214 33.58346124 12.55436175 33 18 C32.16285193 20.45852105 31.14693508 22.65834089 30 25 C30.598125 25.185625 31.19625 25.37125 31.8125 25.5625 C34.99731157 27.65537617 36.00791408 30.45580899 37 34 C37.58611594 39.47041547 36.56161058 43.15123711 34 48 C31.41601202 51.08411469 29.69613925 52.15193037 26 54 C17.42 54 8.84 54 0 54 C0 36.18 0 18.36 0 0 Z M10 10 C10 13.63 10 17.26 10 21 C11.423125 21.061875 12.84625 21.12375 14.3125 21.1875 C15.11300781 21.22230469 15.91351563 21.25710937 16.73828125 21.29296875 C19.05657503 21.17305163 19.05657503 21.17305163 20.8046875 19.71484375 C22.36393892 17.85161875 22.36393892 17.85161875 21.8125 14.375 C21.4103125 12.704375 21.4103125 12.704375 21 11 C17.57067929 9.28533964 13.78283935 9.94595944 10 10 Z M10 32 C10 35.96 10 39.92 10 44 C11.918125 44.061875 13.83625 44.12375 15.8125 44.1875 C16.89144531 44.22230469 17.97039063 44.25710937 19.08203125 44.29296875 C21.98092 44.24463761 21.98092 44.24463761 23.8671875 42.67578125 C25.61198003 40.09469161 25.31573262 38.03103313 25 35 C24.34 34.01 23.68 33.02 23 32 C19.87442041 31.63469768 19.87442041 31.63469768 16.375 31.8125 C15.18648437 31.83957031 13.99796875 31.86664063 12.7734375 31.89453125 C11.40058594 31.94673828 11.40058594 31.94673828 10 32 Z " fill="#FFFFFF" transform="translate(14,5)"/>
</svg>
