<?xml version="1.0" encoding="UTF-8"?>
<svg version="1.1" xmlns="http://www.w3.org/2000/svg" width="64" height="64">
<path d="M0 0 C0.7347757 -0.0038269 1.46955139 -0.00765381 2.22659302 -0.01159668 C3.77819186 -0.01431333 5.32983669 -0.0069692 6.88134766 0.00976562 C9.24356577 0.0311212 11.60272182 0.00999134 13.96484375 -0.015625 C15.47656916 -0.01298048 16.98829267 -0.00785292 18.5 0 C19.55028885 -0.01214539 19.55028885 -0.01214539 20.62179565 -0.02453613 C25.64582867 0.07038712 28.4962616 1.40795886 32.3828125 4.53125 C34.74016578 7.74582266 34.56023939 10.62785847 34.3828125 14.53125 C25.38175542 15.14964323 25.38175542 15.14964323 21.7578125 12.90625 C20.04259205 9.9435965 20.28123023 7.90193448 20.3828125 4.53125 C16.07002865 4.66936922 11.75767297 4.81803109 7.4453125 4.96875 C6.21361328 5.00806641 4.98191406 5.04738281 3.71289062 5.08789062 C2.54306641 5.12978516 1.37324219 5.17167969 0.16796875 5.21484375 C-1.45806274 5.26983032 -1.45806274 5.26983032 -3.11694336 5.32592773 C-5.5564505 5.25489265 -5.5564505 5.25489265 -6.6171875 6.53125 C-6.71514061 7.90734882 -6.74516838 9.28838882 -6.74658203 10.66796875 C-6.74973419 11.54557861 -6.75288635 12.42318848 -6.75613403 13.32739258 C-6.7541098 14.28154053 -6.75208557 15.23568848 -6.75 16.21875 C-6.75143509 17.67800903 -6.75143509 17.67800903 -6.75289917 19.16674805 C-6.75358108 21.228028 -6.75172603 23.28931008 -6.74755859 25.35058594 C-6.7422105 28.51762688 -6.74750322 31.684526 -6.75390625 34.8515625 C-6.75324547 36.84895865 -6.75196431 38.84635471 -6.75 40.84375 C-6.75202423 41.79789795 -6.75404846 42.7520459 -6.75613403 43.73510742 C-6.75298187 44.61271729 -6.74982971 45.49032715 -6.74658203 46.39453125 C-6.74578644 47.17094971 -6.74499084 47.94736816 -6.74417114 48.74731445 C-6.81122292 50.55558662 -6.81122292 50.55558662 -5.6171875 51.53125 C-3.10794597 51.63212212 -0.62682366 51.67097032 1.8828125 51.6640625 C3.00913086 51.66549759 3.00913086 51.66549759 4.15820312 51.66696167 C5.74869877 51.66764338 7.33919717 51.66578972 8.9296875 51.66162109 C11.37245905 51.65627267 13.81504671 51.66156634 16.2578125 51.66796875 C17.79947957 51.66730797 19.34114653 51.6660268 20.8828125 51.6640625 C21.61822266 51.66608673 22.35363281 51.66811096 23.11132812 51.67019653 C26.53527592 51.96181513 26.53527592 51.96181513 29.3828125 50.53125 C29.54261687 48.08516002 29.64210697 45.66393942 29.69921875 43.21484375 C29.71999985 42.48378922 29.74078094 41.75273468 29.76219177 40.99952698 C29.82776274 38.65603344 29.88660682 36.31242461 29.9453125 33.96875 C29.98849058 32.38345145 30.03210463 30.79816471 30.07617188 29.21289062 C30.1834517 25.31912963 30.2846974 21.42525228 30.3828125 17.53125 C31.7028125 17.53125 33.0228125 17.53125 34.3828125 17.53125 C34.48179865 22.44248589 34.55433497 27.35313938 34.60253906 32.26513672 C34.62263643 33.93548702 34.64991933 35.60576713 34.68457031 37.27587891 C34.73317369 39.6788872 34.75579906 42.08096434 34.7734375 44.484375 C34.79408264 45.22931213 34.81472778 45.97424927 34.83599854 46.74176025 C34.83740523 50.00294404 34.59054446 52.18675549 32.89355469 55.00097656 C29.29627442 57.19348461 25.90986835 57.10399423 21.8203125 57.0625 C20.99200928 57.0663269 20.16370605 57.07015381 19.31030273 57.07409668 C17.56199933 57.07681425 15.81365516 57.06946381 14.06542969 57.05273438 C11.39165473 57.03132082 8.72056654 57.05253944 6.046875 57.078125 C4.34634825 57.07548169 2.64582316 57.07035665 0.9453125 57.0625 C0.14730225 57.07059692 -0.65070801 57.07869385 -1.47290039 57.08703613 C-4.75678326 57.03165003 -7.21576494 56.74966649 -10.11914062 55.16992188 C-12.54698294 50.8935008 -12.18692146 46.61376325 -12.1484375 41.78125 C-12.1522644 40.73098633 -12.15609131 39.68072266 -12.16003418 38.59863281 C-12.16275446 36.37954753 -12.15538527 34.16043026 -12.13867188 31.94140625 C-12.11726495 28.54354405 -12.13847075 25.14779639 -12.1640625 21.75 C-12.16141925 19.59374533 -12.15629432 17.43749198 -12.1484375 15.28125 C-12.15653442 14.26450195 -12.16463135 13.24775391 -12.17297363 12.20019531 C-12.08141669 5.31792122 -12.08141669 5.31792122 -10.06005859 1.89257812 C-6.72432391 0.0336878 -3.72300697 -0.04280481 0 0 Z M24.3828125 5.53125 C24.7128125 6.85125 25.0428125 8.17125 25.3828125 9.53125 C27.3628125 10.02625 27.3628125 10.02625 29.3828125 10.53125 C29.0528125 9.21125 28.7228125 7.89125 28.3828125 6.53125 C27.0628125 6.20125 25.7428125 5.87125 24.3828125 5.53125 Z " fill="#FFFFFF" transform="translate(17.6171875,7.46875)"/>
<path d="M0 0 C4.58978038 -0.0992963 9.17892788 -0.17166748 13.76953125 -0.21972656 C15.32921244 -0.23977222 16.88881913 -0.26701657 18.44824219 -0.30175781 C20.69745314 -0.35059126 22.9456659 -0.37303815 25.1953125 -0.390625 C26.23161301 -0.42159271 26.23161301 -0.42159271 27.28884888 -0.45318604 C32.32445717 -0.45549034 35.17261099 0.76999831 39 4 C40.89734584 7.02637329 41.24569681 9.31760653 41.22705078 12.86035156 C41.22689972 13.82104553 41.22674866 14.7817395 41.22659302 15.77154541 C41.21627045 16.80084167 41.20594788 17.83013794 41.1953125 18.890625 C41.1924826 19.95037537 41.18965271 21.01012573 41.18673706 22.10198975 C41.17554734 25.48477497 41.1504447 28.86729487 41.125 32.25 C41.11496865 34.54426701 41.10584307 36.83853817 41.09765625 39.1328125 C41.07561196 44.75529877 41.04214627 50.37763043 41 56 C39.68 56 38.36 56 37 56 C36.98969254 55.43259094 36.97938507 54.86518188 36.96876526 54.28057861 C36.86059679 48.37573972 36.74600715 42.47105024 36.62768555 36.56640625 C36.5843699 34.362662 36.54269241 32.15888492 36.50268555 29.95507812 C36.44490156 26.78765976 36.38123024 23.62040614 36.31640625 20.453125 C36.29969376 19.46757629 36.28298126 18.48202759 36.26576233 17.46661377 C36.2358445 16.08563507 36.2358445 16.08563507 36.20532227 14.67675781 C36.18200584 13.46430389 36.18200584 13.46430389 36.15821838 12.22735596 C36.00297865 10.04193269 35.59991191 8.10291419 35 6 C31.28832638 4.8513433 27.69663773 4.79457567 23.828125 4.68359375 C23.1457074 4.66281265 22.46328979 4.64203156 21.76019287 4.62062073 C19.59022644 4.55547948 17.42014376 4.49640596 15.25 4.4375 C13.77472779 4.39428103 12.29946713 4.35066568 10.82421875 4.30664062 C7.21626834 4.19983482 3.60818867 4.09846847 0 4 C0 2.68 0 1.36 0 0 Z " fill="#FFFFFF" transform="translate(19,0)"/>
</svg>
