<?xml version="1.0" encoding="UTF-8"?>
<svg version="1.1" xmlns="http://www.w3.org/2000/svg" width="96" height="96">
<path d="M0 0 C0.804375 -0.00128906 1.60875 -0.00257813 2.4375 -0.00390625 C3.283125 -0.00003906 4.12875 0.00382813 5 0.0078125 C6.2684375 0.00201172 6.2684375 0.00201172 7.5625 -0.00390625 C8.366875 -0.00261719 9.17125 -0.00132812 10 0 C10.7425 0.00112793 11.485 0.00225586 12.25 0.00341797 C14 0.1328125 14 0.1328125 15 1.1328125 C15.04080783 3.13239614 15.04254356 5.13326504 15 7.1328125 C14.05590775 7.34329224 13.11181549 7.55377197 12.13911438 7.77062988 C8.82809502 8.82124325 8.82809502 8.82124325 7.63981628 11.67565918 C7.35415298 12.74884399 7.06848969 13.82202881 6.77416992 14.92773438 C6.43749802 16.1423938 6.10082611 17.35705322 5.75395203 18.60852051 C5.4123154 19.93941253 5.07116592 21.27042968 4.73046875 22.6015625 C4.3625654 23.96216363 3.99235884 25.32214389 3.61994934 26.68151855 C2.64623171 30.25894133 1.70276588 33.84366308 0.76574707 37.43084717 C-0.19311478 41.08219389 -1.17810846 44.72645634 -2.16210938 48.37109375 C-3.26669032 52.46408336 -4.36876957 56.5575271 -5.44868469 60.65710449 C-5.76959579 61.87176392 -6.0905069 63.08642334 -6.42114258 64.33789062 C-6.70282791 65.41107544 -6.98451324 66.48426025 -7.2747345 67.58996582 C-8 70.1328125 -8 70.1328125 -9 72.1328125 C-7.68 72.4628125 -6.36 72.7928125 -5 73.1328125 C-4.95745644 75.13235996 -4.95919217 77.13322886 -5 79.1328125 C-6.5220959 80.6549084 -7.88210082 80.26240771 -10 80.265625 C-10.804375 80.26691406 -11.60875 80.26820312 -12.4375 80.26953125 C-13.283125 80.26566406 -14.12875 80.26179688 -15 80.2578125 C-15.845625 80.26167969 -16.69125 80.26554687 -17.5625 80.26953125 C-18.366875 80.26824219 -19.17125 80.26695313 -20 80.265625 C-20.7425 80.26449707 -21.485 80.26336914 -22.25 80.26220703 C-24 80.1328125 -24 80.1328125 -25 79.1328125 C-25.04080783 77.13322886 -25.04254356 75.13235996 -25 73.1328125 C-24.05590775 72.92233276 -23.11181549 72.71185303 -22.13911438 72.49499512 C-18.82809502 71.44438175 -18.82809502 71.44438175 -17.63981628 68.58996582 C-17.35415298 67.51678101 -17.06848969 66.44359619 -16.77416992 65.33789062 C-16.43749802 64.1232312 -16.10082611 62.90857178 -15.75395203 61.65710449 C-15.4123154 60.32621247 -15.07116592 58.99519532 -14.73046875 57.6640625 C-14.3625654 56.30346137 -13.99235884 54.94348111 -13.61994934 53.58410645 C-12.64623171 50.00668367 -11.70276588 46.42196192 -10.76574707 42.83477783 C-9.80688522 39.18343111 -8.82189154 35.53916866 -7.83789062 31.89453125 C-6.73330968 27.80154164 -5.63123043 23.7080979 -4.55131531 19.60852051 C-4.06994865 17.78653137 -4.06994865 17.78653137 -3.57885742 15.92773438 C-3.29717209 14.85454956 -3.01548676 13.78136475 -2.7252655 12.67565918 C-2 10.1328125 -2 10.1328125 -1 8.1328125 C-2.32 7.8028125 -3.64 7.4728125 -5 7.1328125 C-5.04254356 5.13326504 -5.04080783 3.13239614 -5 1.1328125 C-3.4779041 -0.3892834 -2.11789918 0.00321729 0 0 Z " fill="#FFFFFF" transform="translate(53,7.8671875)"/>
</svg>
