<?xml version="1.0" encoding="UTF-8"?>
<svg version="1.1" xmlns="http://www.w3.org/2000/svg" width="64" height="64">
<path d="M0 0 C0.12375 0.804375 0.2475 1.60875 0.375 2.4375 C0.58125 3.283125 0.7875 4.12875 1 5 C3.73905345 6.36952673 5.97087332 6.12621361 9 6 C9.66 5.67 10.32 5.34 11 5 C11.65555119 2.47266765 11.65555119 2.47266765 12 0 C16.65394781 -0.32469403 19.23358918 0.20209482 23 3 C24.56682489 6.13364979 24.20502344 9.48733407 24.23828125 12.9296875 C24.246353 13.71642853 24.25442474 14.50316956 24.26274109 15.31375122 C24.27657904 16.97981564 24.2873025 18.64590839 24.29516602 20.31201172 C24.31238701 22.858294 24.35627417 25.40328037 24.40039062 27.94921875 C24.41051702 29.56769878 24.41903329 31.18618985 24.42578125 32.8046875 C24.44328934 33.5652243 24.46079742 34.32576111 24.47883606 35.10934448 C24.46427972 38.66184192 24.30897552 40.60196939 22.09838867 43.44970703 C17.20857292 47.06231087 12.07970896 46.22251448 6.1875 46.25 C4.5468457 46.2809375 4.5468457 46.2809375 2.87304688 46.3125 C1.2865332 46.32023437 1.2865332 46.32023437 -0.33203125 46.328125 C-1.29858643 46.3374707 -2.2651416 46.34681641 -3.26098633 46.35644531 C-6.50012256 45.93491586 -8.37237884 44.90920135 -11 43 C-12.56682489 39.86635021 -12.20502344 36.51266593 -12.23828125 33.0703125 C-12.246353 32.28357147 -12.25442474 31.49683044 -12.26274109 30.68624878 C-12.27657904 29.02018436 -12.2873025 27.35409161 -12.29516602 25.68798828 C-12.31238701 23.141706 -12.35627417 20.59671963 -12.40039062 18.05078125 C-12.41051702 16.43230122 -12.41903329 14.81381015 -12.42578125 13.1953125 C-12.44328934 12.4347757 -12.46079742 11.67423889 -12.47883606 10.89065552 C-12.46427972 7.33815808 -12.30897552 5.39803061 -10.09838867 2.55029297 C-6.5539117 -0.06837239 -4.37532954 -0.09511586 0 0 Z " fill="#FFFFFF" transform="translate(26,9)"/>
</svg>
