<?xml version="1.0" encoding="UTF-8"?>
<svg version="1.1" xmlns="http://www.w3.org/2000/svg" width="96" height="96">
<path d="M0 0 C0.98484375 -0.00128906 1.9696875 -0.00257813 2.984375 -0.00390625 C4.02078125 -0.00003906 5.0571875 0.00382813 6.125 0.0078125 C7.67960937 0.00201172 7.67960937 0.00201172 9.265625 -0.00390625 C10.25046875 -0.00261719 11.2353125 -0.00132812 12.25 0 C13.16007812 0.00112793 14.07015625 0.00225586 15.0078125 0.00341797 C17.125 0.1328125 17.125 0.1328125 18.125 1.1328125 C18.25 4.1328125 18.25 4.1328125 18.125 7.1328125 C17.125 8.1328125 17.125 8.1328125 13.5625 8.1953125 C12.428125 8.1746875 11.29375 8.1540625 10.125 8.1328125 C10.21926202 12.54396868 10.32550762 16.95463295 10.44238281 21.36523438 C10.48042835 22.86255198 10.51532167 24.35995339 10.546875 25.85742188 C10.59306201 28.02243817 10.65096017 30.18688936 10.7109375 32.3515625 C10.75806885 34.2996582 10.75806885 34.2996582 10.80615234 36.28710938 C11.36510084 43.02873008 12.67086294 48.83600087 17.125 54.1328125 C22.28093406 58.21459363 26.64883238 58.82348525 33.18359375 58.578125 C38.44845513 57.78105435 42.14699323 55.61252944 45.46484375 51.453125 C49.15819578 45.53850431 49.25136354 39.33411468 49.44140625 32.546875 C49.46218735 31.84509125 49.48296844 31.1433075 49.50437927 30.42025757 C49.56926324 28.19953292 49.6284723 25.97869974 49.6875 23.7578125 C49.73074354 22.24347879 49.7743596 20.72915567 49.81835938 19.21484375 C49.92488086 15.52094595 50.02631677 11.82692896 50.125 8.1328125 C48.4234375 8.16375 48.4234375 8.16375 46.6875 8.1953125 C43.125 8.1328125 43.125 8.1328125 42.125 7.1328125 C42 4.1328125 42 4.1328125 42.125 1.1328125 C43.77894117 -0.52112867 45.72815413 0.00281567 48 0 C48.98484375 -0.00128906 49.9696875 -0.00257813 50.984375 -0.00390625 C52.02078125 -0.00003906 53.0571875 0.00382813 54.125 0.0078125 C55.67960937 0.00201172 55.67960937 0.00201172 57.265625 -0.00390625 C58.25046875 -0.00261719 59.2353125 -0.00132812 60.25 0 C61.16007812 0.00112793 62.07015625 0.00225586 63.0078125 0.00341797 C65.125 0.1328125 65.125 0.1328125 66.125 1.1328125 C66.25 4.1328125 66.25 4.1328125 66.125 7.1328125 C65.125 8.1328125 65.125 8.1328125 61.5625 8.1953125 C60.428125 8.1746875 59.29375 8.1540625 58.125 8.1328125 C58.15118408 9.29216309 58.17736816 10.45151367 58.2043457 11.64599609 C58.29552637 15.98824411 58.35249345 20.33040928 58.3996582 24.67333984 C58.42464898 26.54522987 58.45865373 28.41702385 58.50219727 30.28857422 C58.99195097 51.89535513 58.99195097 51.89535513 51.1340332 60.24951172 C44.37693441 66.77982697 37.50048037 68.6990688 28.19360352 68.61328125 C19.67082427 68.31427088 13.95570397 65.40896777 8.1875 59.2578125 C2.73679112 52.85624285 1.68223452 46.81430459 1.83203125 38.69921875 C1.83627609 37.82128159 1.84052094 36.94334442 1.84489441 36.0388031 C1.8615771 33.2573167 1.89920915 30.47657686 1.9375 27.6953125 C1.95256032 25.80014073 1.96624636 23.90495752 1.97851562 22.00976562 C2.0114464 17.38383053 2.06315572 12.75844773 2.125 8.1328125 C0.4234375 8.16375 0.4234375 8.16375 -1.3125 8.1953125 C-4.875 8.1328125 -4.875 8.1328125 -5.875 7.1328125 C-6 4.1328125 -6 4.1328125 -5.875 1.1328125 C-4.22105883 -0.52112867 -2.27184587 0.00281567 0 0 Z " fill="#FFFFFF" transform="translate(17.875,7.8671875)"/>
<path d="M0 0 C1.8569751 -0.00472824 1.8569751 -0.00472824 3.75146484 -0.009552 C5.11295609 -0.00776222 6.47444701 -0.00571127 7.8359375 -0.00341797 C9.22216814 -0.00409106 10.60839867 -0.00506113 11.99462891 -0.00631714 C14.90333172 -0.00779387 17.81200387 -0.00564037 20.72070312 -0.00097656 C24.45690348 0.00472073 28.19303202 0.00144159 31.92922974 -0.00454903 C34.79273016 -0.00815532 37.65621343 -0.00701574 40.51971436 -0.00442123 C41.89768482 -0.00375215 43.27565682 -0.00457973 44.65362549 -0.00690079 C46.57637504 -0.00942839 48.49913002 -0.0048957 50.421875 0 C52.06615479 0.00119339 52.06615479 0.00119339 53.74365234 0.00241089 C56.2109375 0.12939453 56.2109375 0.12939453 57.2109375 1.12939453 C57.3359375 4.12939453 57.3359375 4.12939453 57.2109375 7.12939453 C55.43177283 8.9085592 52.82780451 8.25704288 50.421875 8.25878906 C49.1838916 8.26194122 47.9459082 8.26509338 46.67041016 8.26834106 C45.30891891 8.26655128 43.94742799 8.26450033 42.5859375 8.26220703 C41.19970686 8.26288012 39.81347633 8.26385019 38.42724609 8.2651062 C35.51854328 8.26658293 32.60987113 8.26442943 29.70117188 8.25976562 C25.96497152 8.25406834 22.22884298 8.25734748 18.49264526 8.26333809 C15.62914484 8.26694438 12.76566157 8.2658048 9.90216064 8.2632103 C8.52419018 8.26254122 7.14621818 8.2633688 5.76824951 8.26568985 C3.84549996 8.26821745 1.92274498 8.26368477 0 8.25878906 C-1.64427979 8.25759567 -1.64427979 8.25759567 -3.32177734 8.25637817 C-5.7890625 8.12939453 -5.7890625 8.12939453 -6.7890625 7.12939453 C-6.9140625 4.12939453 -6.9140625 4.12939453 -6.7890625 1.12939453 C-5.00989783 -0.64977014 -2.40592951 0.00174618 0 0 Z " fill="#FFFFFF" transform="translate(22.7890625,79.87060546875)"/>
</svg>
